{
	"asset":{
		"generator":"Khronos glTF Blender I/O v3.5.30",
		"version":"2.0"
	},
	"scene":0,
	"scenes":[
		{
			"name":"Scene",
			"nodes":[
				0,
				1,
				2
			]
		}
	],
	"nodes":[
		{
			"mesh":0,
			"name":"Suzanne"
		},
		{
			"mesh":1,
			"name":"Icosphere",
			"scale":[
				0.18012632429599762,
				0.18012632429599762,
				0.18012632429599762
			],
			"translation":[
				-0.3461875915527344,
				0.24374428391456604,
				0.6411535739898682
			]
		},
		{
			"mesh":2,
			"name":"Icosphere.001",
			"scale":[
				0.18012632429599762,
				0.18012632429599762,
				0.18012632429599762
			],
			"translation":[
				0.3461875319480896,
				0.24374428391456604,
				0.6411535739898682
			]
		}
	],
	"materials":[
		{
			"doubleSided":true,
			"name":"Material.001",
			"pbrMetallicRoughness":{
				"baseColorTexture":{
					"index":0
				},
				"metallicFactor":0,
				"roughnessFactor":0.5
			}
		},
		{
			"doubleSided":true,
			"name":"Material.002",
			"pbrMetallicRoughness":{
				"baseColorTexture":{
					"index":1
				},
				"metallicFactor":0,
				"roughnessFactor":0.5
			}
		}
	],
	"meshes":[
		{
			"name":"Suzanne",
			"primitives":[
				{
					"attributes":{
						"POSITION":0,
						"TEXCOORD_0":1,
						"NORMAL":2
					},
					"indices":3,
					"material":0
				}
			]
		},
		{
			"name":"Icosphere",
			"primitives":[
				{
					"attributes":{
						"POSITION":4,
						"TEXCOORD_0":5,
						"NORMAL":6
					},
					"indices":7,
					"material":1
				}
			]
		},
		{
			"name":"Icosphere.001",
			"primitives":[
				{
					"attributes":{
						"POSITION":8,
						"TEXCOORD_0":9,
						"NORMAL":10
					},
					"indices":7,
					"material":1
				}
			]
		}
	],
	"textures":[
		{
			"sampler":0,
			"source":0
		},
		{
			"sampler":0,
			"source":1
		}
	],
	"images":[
		{
			"mimeType":"image/png",
			"name":"wood10 diffuse 1k",
			"uri":"suzanne_wood_baseColor.png"
		},
		{
			"mimeType":"image/jpeg",
			"name":"Marble01 diffuse 1k",
			"uri":"suzanne_marble_baseColor.jpg"
		}
	],
	"accessors":[
		{
			"bufferView":0,
			"componentType":5126,
			"count":1870,
			"max":[
				1.3671875,
				0.984375,
				0.8515625
			],
			"min":[
				-1.3671875,
				-0.984375,
				-0.8515625
			],
			"type":"VEC3"
		},
		{
			"bufferView":1,
			"componentType":5126,
			"count":1870,
			"type":"VEC2"
		},
		{
			"bufferView":2,
			"componentType":5126,
			"count":1870,
			"type":"VEC3"
		},
		{
			"bufferView":3,
			"componentType":5123,
			"count":2796,
			"type":"SCALAR"
		},
		{
			"bufferView":4,
			"componentType":5126,
			"count":240,
			"max":[
				0.9510578513145447,
				1,
				0.9999999403953552
			],
			"min":[
				-0.9510578513145447,
				-1,
				-0.9999999403953552
			],
			"type":"VEC3"
		},
		{
			"bufferView":5,
			"componentType":5126,
			"count":240,
			"type":"VEC2"
		},
		{
			"bufferView":6,
			"componentType":5126,
			"count":240,
			"type":"VEC3"
		},
		{
			"bufferView":7,
			"componentType":5123,
			"count":240,
			"type":"SCALAR"
		},
		{
			"bufferView":8,
			"componentType":5126,
			"count":240,
			"max":[
				0.9510578513145447,
				1,
				0.9999999403953552
			],
			"min":[
				-0.9510578513145447,
				-1,
				-0.9999999403953552
			],
			"type":"VEC3"
		},
		{
			"bufferView":9,
			"componentType":5126,
			"count":240,
			"type":"VEC2"
		},
		{
			"bufferView":10,
			"componentType":5126,
			"count":240,
			"type":"VEC3"
		}
	],
	"bufferViews":[
		{
			"buffer":0,
			"byteLength":22440,
			"byteOffset":0,
			"target":34962
		},
		{
			"buffer":0,
			"byteLength":14960,
			"byteOffset":22440,
			"target":34962
		},
		{
			"buffer":0,
			"byteLength":22440,
			"byteOffset":37400,
			"target":34962
		},
		{
			"buffer":0,
			"byteLength":5592,
			"byteOffset":59840,
			"target":34963
		},
		{
			"buffer":0,
			"byteLength":2880,
			"byteOffset":65432,
			"target":34962
		},
		{
			"buffer":0,
			"byteLength":1920,
			"byteOffset":68312,
			"target":34962
		},
		{
			"buffer":0,
			"byteLength":2880,
			"byteOffset":70232,
			"target":34962
		},
		{
			"buffer":0,
			"byteLength":480,
			"byteOffset":73112,
			"target":34963
		},
		{
			"buffer":0,
			"byteLength":2880,
			"byteOffset":73592,
			"target":34962
		},
		{
			"buffer":0,
			"byteLength":1920,
			"byteOffset":76472,
			"target":34962
		},
		{
			"buffer":0,
			"byteLength":2880,
			"byteOffset":78392,
			"target":34962
		}
	],
	"samplers":[
		{
			"magFilter":9729,
			"minFilter":9987
		}
	],
	"buffers":[
		{
			"byteLength":81272,
			"uri":"suzanne.bin"
		}
	]
}
