{
	"asset":{
		"generator":"Khronos glTF Blender I/O v3.5.30",
		"version":"2.0"
	},
	"scene":0,
	"scenes":[
		{
			"name":"Scene",
			"nodes":[
				0
			]
		}
	],
	"nodes":[
		{
			"mesh":0,
			"name":"Starship",
			"scale":[
			    0.2,
			    0.2,
			    0.2
			]
		}
	],
	"materials":[
		{
			"doubleSided":true,
			"name":"Material",
			"normalTexture":{
				"index":0
			},
			"pbrMetallicRoughness":{
				"baseColorFactor":[
					0.800000011920929,
					0.800000011920929,
					0.800000011920929,
					1
				],
				"baseColorTexture":{
				    "index":0
				},
				"metallicFactor":0,
				"roughnessFactor":0.5
			}
		}
	],
	"meshes":[
		{
			"name":"Cube.013",
			"primitives":[
				{
					"attributes":{
						"POSITION":0,
						"TEXCOORD_0":1,
						"NORMAL":2
					},
					"indices":3,
					"material":0
				}
			]
		}
	],
	"textures":[
		{
			"sampler":0,
			"source":0
		}
	],
	"images":[
		{
			"mimeType":"image/png",
			"name":"Normal",
			"uri":"Normal.tga"
		}
	],
	"accessors":[
		{
			"bufferView":0,
			"componentType":5126,
			"count":5704,
			"max":[
				3.5687472820281982,
				1.7878096103668213,
				3.6162166595458984
			],
			"min":[
				-5.500524520874023,
				-0.5388286709785461,
				-3.6162166595458984
			],
			"type":"VEC3"
		},
		{
			"bufferView":1,
			"componentType":5126,
			"count":5704,
			"type":"VEC2"
		},
		{
			"bufferView":2,
			"componentType":5126,
			"count":5704,
			"type":"VEC3"
		},
		{
			"bufferView":3,
			"componentType":5123,
			"count":19044,
			"type":"SCALAR"
		}
	],
	"bufferViews":[
		{
			"buffer":0,
			"byteLength":68448,
			"byteOffset":0,
			"target":34962
		},
		{
			"buffer":0,
			"byteLength":45632,
			"byteOffset":68448,
			"target":34962
		},
		{
			"buffer":0,
			"byteLength":68448,
			"byteOffset":114080,
			"target":34962
		},
		{
			"buffer":0,
			"byteLength":38088,
			"byteOffset":182528,
			"target":34963
		}
	],
	"samplers":[
		{
			"magFilter":9729,
			"minFilter":9987
		}
	],
	"buffers":[
		{
			"byteLength":220616,
			"uri":"Starship01.bin"
		}
	]
}
